<svg width="100" height="100" viewBox="0 0 100 100" xmlns="http://www.w3.org/2000/svg">
  <!-- 배경 -->
  <rect width="100" height="100" rx="22" fill="#050505" stroke="#FF8800" stroke-width="2"/>

  <!-- 별 5개 (위) -->
  <g fill="#FF8800" filter="drop-shadow(0 0 4px #FF8800)">
    <path d="M 18 20 L 19.5 24 L 23.5 24 L 20.5 27 L 21.5 31 L 18 28.5 L 14.5 31 L 15.5 27 L 12.5 24 L 16.5 24 Z"/>
    <path d="M 34 18 L 35.5 22 L 39.5 22 L 36.5 25 L 37.5 29 L 34 26.5 L 30.5 29 L 31.5 25 L 28.5 22 L 32.5 22 Z"/>
    <path d="M 50 16 L 51.5 20 L 55.5 20 L 52.5 23 L 53.5 27 L 50 24.5 L 46.5 27 L 47.5 23 L 44.5 20 L 48.5 20 Z"/>
    <path d="M 66 18 L 67.5 22 L 71.5 22 L 68.5 25 L 69.5 29 L 66 26.5 L 62.5 29 L 63.5 25 L 60.5 22 L 64.5 22 Z"/>
    <path d="M 82 20 L 83.5 24 L 87.5 24 L 84.5 27 L 85.5 31 L 82 28.5 L 78.5 31 L 79.5 27 L 76.5 24 L 80.5 24 Z"/>
  </g>

  <!-- M (아래) -->
  <path d="M 18 86 L 18 40 L 38 66 L 50 52 L 62 66 L 82 40 L 82 86"
        stroke="#FF8800" stroke-width="7" fill="none"
        stroke-linecap="round" stroke-linejoin="round"/>
</svg>
