<svg width="100" height="100" viewBox="0 0 100 100" xmlns="http://www.w3.org/2000/svg">
  <!-- 잉크 블록 배경 (MY PICKS 반전 블록과 동일) -->
  <rect width="100" height="100" rx="22" fill="#111111"/>
  <!-- 별 3개 (라임) -->
  <g fill="#D8FF3E">
    <path d="M 28.00 17.00 L 30.22 22.94 L 36.56 23.22 L 31.59 27.17 L 33.29 33.28 L 28.00 29.78 L 22.71 33.28 L 24.41 27.17 L 19.44 23.22 L 25.78 22.94 Z"/>
    <path d="M 50.00 12.00 L 52.47 18.60 L 59.51 18.91 L 53.99 23.30 L 55.88 30.09 L 50.00 26.20 L 44.12 30.09 L 46.01 23.30 L 40.49 18.91 L 47.53 18.60 Z"/>
    <path d="M 72.00 17.00 L 74.22 22.94 L 80.56 23.22 L 75.59 27.17 L 77.29 33.28 L 72.00 29.78 L 66.71 33.28 L 68.41 27.17 L 63.44 23.22 L 69.78 22.94 Z"/>
  </g>
  <!-- M 마크 (라임) -->
  <path d="M 18 86 L 18 40 L 38 66 L 50 52 L 62 66 L 82 40 L 82 86"
        stroke="#D8FF3E" stroke-width="8" fill="none"
        stroke-linecap="round" stroke-linejoin="round"/>
</svg>
